<?xml version="1.0" encoding="utf-8"?>
<!-- Generator: Adobe Illustrator 16.0.0, SVG Export Plug-In . SVG Version: 6.00 Build 0)  -->
<!DOCTYPE svg PUBLIC "-//W3C//DTD SVG 1.1//EN" "http://www.w3.org/Graphics/SVG/1.1/DTD/svg11.dtd">
<svg version="1.1" id="Layer_1" xmlns="http://www.w3.org/2000/svg" xmlns:xlink="http://www.w3.org/1999/xlink" x="0px" y="0px"
	 width="612px" height="322.659px" viewBox="0 0 612 322.659" enable-background="new 0 0 612 322.659" xml:space="preserve">
<polygon opacity="0.08" points="0,43.899 72.566,13.811 127.434,18.235 143.363,38.589 178.761,45.669 215.929,12.04 292.091,0 
	354.867,42.129 404.425,23.545 437.168,36.819 529.735,1.632 612,29.739 612,221.774 577.876,243.898 519.469,300.536 
	448.673,322.659 419.469,296.996 343.363,289.031 299.115,294.34 272.566,316.464 164.602,322.659 109.734,289.031 67.257,287.261 
	0,260.712 "/>
<polygon opacity="0.1" points="0,58.058 53.097,37.704 84.956,29.739 141.593,53.633 179.646,59.828 208.85,27.084 314.159,24.429 
	344.248,54.518 381.416,39.474 446.018,45.668 534.514,12.04 612,40.358 612,157.173 586.726,178.828 515.93,291.686 
	458.407,309.385 419.469,269.903 392.035,281.067 318.584,279.296 269.912,274.872 169.912,309.385 108.85,273.987 76.106,222.66 
	0,233.62 "/>
<polygon opacity="0.14" points="0,97.881 53.097,77.527 102.409,50.677 160.177,89.031 200,85.491 255.685,39.479 284.12,38.762 
	346.902,73.102 441.593,64.252 482.301,49.208 572.266,39.412 612,53.933 612,120.004 556.637,170.447 543.643,218.305 
	474.336,258.943 419.469,240.7 392.035,251.864 338.938,265.137 269.026,264.252 212.39,289.031 131.858,252.748 76.106,205.845 
	0,178.828 "/>
<polygon opacity="0.08" points="612,114.692 534.514,186.792 511.493,224.613 443.846,204.585 403.54,231.507 344.248,246.55 
	314.02,236.74 257.522,217.348 165.487,206.728 119.332,198.248 28.318,186.792 0,163.365 0,135.046 45.133,115.578 74.36,79.796 
	173.451,83.719 200.456,75.268 229.197,68.114 283.641,62.517 352.718,73.324 411.505,65.135 500,95.224 567.257,98.763 612,84.604 
	"/>
</svg>
