<?xml version="1.0" encoding="utf-8"?>
<!-- Generator: Adobe Illustrator 16.0.0, SVG Export Plug-In . SVG Version: 6.00 Build 0)  -->
<!DOCTYPE svg PUBLIC "-//W3C//DTD SVG 1.1//EN" "http://www.w3.org/Graphics/SVG/1.1/DTD/svg11.dtd">
<svg version="1.1" id="Layer_1" xmlns="http://www.w3.org/2000/svg" xmlns:xlink="http://www.w3.org/1999/xlink" x="0px" y="0px"
	 width="1000px" height="237.175px" viewBox="0 0 1000 237.175" enable-background="new 0 0 1000 237.175" xml:space="preserve">
<polygon opacity="0.08" points="0,106.107 63.717,230.886 209.734,217.611 311.504,167.716 410.619,150.838 493.806,135.31 
	548.673,145.93 644.248,212.575 758.407,230.886 835.398,193.718 924.778,196.373 1000,66.284 1000.947,0 0,0 "/>
<polygon opacity="0.14" points="0,48.508 174.328,181.087 296.663,119.145 336.422,123.492 393.002,108.277 486.283,70.242 
	582.621,106.104 668.255,141.965 746.245,181.087 831.879,150.659 889.987,171.307 1000.947,16.823 1000.947,0 0,0 "/>
<polygon opacity="0.1" points="0,67.539 132.743,202.664 250.442,160.186 311.504,152.221 410.619,135.343 493.806,98.239 
	548.673,108.858 631.858,171.964 746.018,190.274 828.318,166.38 899.115,188.504 1000,30.034 1000.947,0 0,0 "/>
<polygon opacity="0.08" points="-0.474,8.169 168.142,59.16 296.189,60.048 335.948,64.396 392.528,49.181 485.81,70.242 
	582.147,91.018 667.781,87.382 745.771,126.505 831.405,115.503 889.514,136.151 1000.474,0 -0.474,0 "/>
</svg>
