<?xml version="1.0" encoding="utf-8"?>
<!-- Generator: Adobe Illustrator 16.0.0, SVG Export Plug-In . SVG Version: 6.00 Build 0)  -->
<!DOCTYPE svg PUBLIC "-//W3C//DTD SVG 1.1//EN" "http://www.w3.org/Graphics/SVG/1.1/DTD/svg11.dtd">
<svg version="1.1" id="Layer_1" xmlns="http://www.w3.org/2000/svg" xmlns:xlink="http://www.w3.org/1999/xlink" x="0px" y="0px"
	 width="612px" height="322.66px" viewBox="0 0 612 322.66" enable-background="new 0 0 612 322.66" xml:space="preserve">
<polygon opacity="0.08" enable-background="new    " points="0,9.829 67.257,29.829 109.734,33.629 164.602,9.163 272.566,19.163 
	299.115,28.32 343.363,33.629 419.469,25.664 448.673,5.829 519.469,22.123 577.876,61.829 612,69.829 612,292.92 529.735,321.028 
	437.168,285.84 404.425,299.115 354.867,280.531 292.091,322.66 215.93,310.62 178.762,276.991 143.363,284.071 127.435,304.425 
	72.566,308.849 0,278.761 "/>
<polygon opacity="0.1" enable-background="new    " points="0,89.039 76.105,100 108.851,67.163 169.912,33.629 269.912,47.787 
	318.584,43.363 392.035,41.593 447.166,19.163 479.833,28.496 515.93,30.974 586.726,92.496 612,103.163 612,282.301 
	534.514,310.62 446.018,276.992 381.416,283.185 344.248,268.141 314.159,298.23 208.851,295.576 179.646,262.832 141.593,269.027 
	84.956,292.92 53.098,284.956 0,264.601 "/>
<polygon opacity="0.14" enable-background="new    " points="0,143.832 76.105,116.814 131.858,69.912 212.391,33.629 
	269.026,58.408 338.938,57.523 392.035,70.795 419.469,81.959 474.336,63.717 543.643,104.354 556.637,152.213 612,202.656 
	612,268.726 572.266,283.248 482.301,273.452 441.593,258.408 346.902,249.557 284.12,283.898 255.686,283.181 200,237.168 
	160.177,233.628 102.409,271.983 53.098,245.132 0,224.779 "/>
<polygon opacity="0.08" enable-background="new    " points="612,238.055 567.257,223.896 500,227.435 411.505,257.525 
	352.718,249.335 283.642,260.142 229.197,254.545 200.456,247.391 173.451,238.941 74.36,242.864 45.133,207.082 0,187.614 
	0,159.295 28.318,135.867 119.332,124.412 165.487,115.932 257.522,105.312 314.02,85.92 344.248,76.109 403.54,91.152 
	443.846,118.074 511.493,98.047 534.514,135.867 612,207.967 "/>
</svg>
